<svg width="63" height="62" viewBox="0 0 63 62" fill="none" xmlns="http://www.w3.org/2000/svg">
<path d="M5.06194 55L0.847643 39.054H3.9685L6.83878 51.7425L10.2102 39.054H13.4222L16.7025 51.7425L19.5728 39.054H22.7164L18.3882 55H14.9257L11.7593 43.1772L8.50172 55H5.06194ZM28.9817 55.2734C27.8882 55.2734 26.9011 55.0228 26.0203 54.5216C25.1546 54.0205 24.4636 53.3295 23.9473 52.4486C23.4461 51.5526 23.1955 50.5199 23.1955 49.3506C23.1955 48.1812 23.4537 47.1561 23.9701 46.2753C24.4864 45.3792 25.1774 44.6807 26.043 44.1795C26.9239 43.6783 27.911 43.4278 29.0044 43.4278C30.0827 43.4278 31.0546 43.6783 31.9203 44.1795C32.8011 44.6807 33.4921 45.3792 33.9933 46.2753C34.5096 47.1561 34.7678 48.1812 34.7678 49.3506C34.7678 50.5199 34.5096 51.5526 33.9933 52.4486C33.4921 53.3295 32.8011 54.0205 31.9203 54.5216C31.0394 55.0228 30.0599 55.2734 28.9817 55.2734ZM28.9817 52.7448C29.741 52.7448 30.4016 52.4638 30.9635 51.9019C31.5254 51.3248 31.8064 50.4744 31.8064 49.3506C31.8064 48.2267 31.5254 47.3839 30.9635 46.822C30.4016 46.2449 29.7486 45.9563 29.0044 45.9563C28.2299 45.9563 27.5617 46.2449 26.9998 46.822C26.4531 47.3839 26.1797 48.2267 26.1797 49.3506C26.1797 50.4744 26.4531 51.3248 26.9998 51.9019C27.5617 52.4638 28.2223 52.7448 28.9817 52.7448ZM37.3748 55V43.7011H39.949L40.1768 45.6146C40.5261 44.9464 41.0272 44.4149 41.6803 44.02C42.3485 43.6252 43.1306 43.4278 44.0266 43.4278C45.4238 43.4278 46.5096 43.8682 47.2841 44.749C48.0587 45.6298 48.4459 46.9207 48.4459 48.6216V55H45.5301V48.895C45.5301 47.923 45.3327 47.1789 44.9378 46.6625C44.5429 46.1462 43.9279 45.888 43.0926 45.888C42.2725 45.888 41.5967 46.1765 41.0652 46.7536C40.5489 47.3307 40.2907 48.1356 40.2907 49.1683V55H37.3748ZM55.9041 55.2734C54.9017 55.2734 54.0209 55.1139 53.2616 54.795C52.5022 54.4609 51.8948 54.0053 51.4392 53.4282C50.9836 52.8511 50.7102 52.1829 50.6191 51.4235H53.5577C53.6488 51.864 53.8918 52.2436 54.2867 52.5625C54.6967 52.8663 55.2207 53.0181 55.8585 53.0181C56.4963 53.0181 56.9595 52.8891 57.2481 52.6309C57.5518 52.3727 57.7037 52.0766 57.7037 51.7425C57.7037 51.2565 57.4911 50.93 57.0658 50.7629C56.6406 50.5807 56.0483 50.406 55.289 50.239C54.803 50.1327 54.3095 50.0036 53.8083 49.8517C53.3071 49.6999 52.8439 49.51 52.4187 49.2822C52.0087 49.0392 51.6746 48.7355 51.4164 48.371C51.1582 47.9914 51.0291 47.5282 51.0291 46.9814C51.0291 45.9791 51.424 45.1363 52.2137 44.4529C53.0186 43.7695 54.1424 43.4278 55.5851 43.4278C56.9216 43.4278 57.9846 43.7391 58.7743 44.3617C59.5792 44.9844 60.0576 45.8424 60.2095 46.9359H57.4531C57.286 46.1006 56.6558 45.683 55.5624 45.683C55.0156 45.683 54.5904 45.7893 54.2867 46.0019C53.9981 46.2145 53.8539 46.4803 53.8539 46.7992C53.8539 47.1333 54.0741 47.3991 54.5145 47.5965C54.9549 47.7939 55.5396 47.9762 56.2685 48.1432C57.0582 48.3255 57.7796 48.5305 58.4326 48.7583C59.1009 48.9709 59.6324 49.2974 60.0272 49.7378C60.4221 50.163 60.6195 50.7781 60.6195 51.583C60.6347 52.2816 60.4525 52.9118 60.0728 53.4737C59.6931 54.0356 59.1464 54.4761 58.4326 54.795C57.7189 55.1139 56.876 55.2734 55.9041 55.2734Z" fill="white"/>
<path d="M31.6448 4.18053L25.7949 1V13.6653L31.6448 15.7099L37.5231 13.6653V1L31.6448 4.18053Z" fill="#605CFF" stroke="#605CFF" stroke-width="0.0567951"/>
<path d="M31.6166 14.6023L11 4.29395V17.0445L31.6166 27.8923L53 17.0445V4.29395L31.6166 14.6023Z" fill="#605CFF" stroke="#605CFF" stroke-width="0.0567951"/>
<path d="M31.9865 8.83785L19.0088 2.3916V14.5458L31.9865 20.9352L44.5098 14.1482V2.3916L31.9865 8.83785Z" fill="#605CFF" stroke="#605CFF" stroke-width="0.0567951"/>
</svg>
